<svg width="30" height="37" viewBox="0 0 30 37" fill="none" xmlns="http://www.w3.org/2000/svg">
<g opacity="0.3">
<path opacity="0.3" d="M20.9509 7.61811C20.1307 7.61732 19.3443 7.29124 18.7641 6.71139C18.184 6.13154 17.8575 5.34527 17.8564 4.52505V0.230469H4.03657C2.966 0.230469 1.9393 0.655748 1.1823 1.41275C0.425293 2.16976 0 3.19648 0 4.26704V28.6005C0 29.6711 0.425293 30.6978 1.1823 31.4548C1.9393 32.2118 2.966 32.6371 4.03657 32.6371H20.6269C21.6975 32.6371 22.7242 32.2118 23.4812 31.4548C24.2382 30.6978 24.6635 29.6711 24.6635 28.6005V7.61811H20.9509Z" fill="#FF3E4C"/>
</g>
<path d="M24.6631 7.61811H20.9505C20.1303 7.61732 19.3439 7.29124 18.7637 6.71139C18.1836 6.13154 17.8571 5.34527 17.856 4.52505V0.230469L24.6631 7.61811Z" fill="#FF3E4C"/>
<path d="M19.5865 22.8567H4.10016C3.95619 22.8493 3.82057 22.7868 3.7213 22.6823C3.62203 22.5777 3.56665 22.4391 3.56665 22.2949C3.56665 22.1508 3.62203 22.0121 3.7213 21.9076C3.82057 21.803 3.95619 21.7406 4.10016 21.7332H19.5865C19.6627 21.7292 19.7389 21.7408 19.8105 21.7673C19.8821 21.7937 19.9475 21.8345 20.0029 21.887C20.0582 21.9396 20.1022 22.0029 20.1323 22.073C20.1625 22.1431 20.178 22.2186 20.178 22.2949C20.178 22.3712 20.1625 22.4468 20.1323 22.5169C20.1022 22.587 20.0582 22.6503 20.0029 22.7028C19.9475 22.7554 19.8821 22.7961 19.8105 22.8226C19.7389 22.849 19.6627 22.8606 19.5865 22.8567Z" fill="#FF3E4C"/>
<path d="M19.5865 16.5208H4.10016C3.95619 16.5133 3.82057 16.4509 3.7213 16.3463C3.62203 16.2418 3.56665 16.1032 3.56665 15.959C3.56665 15.8148 3.62203 15.6762 3.7213 15.5716C3.82057 15.4671 3.95619 15.4047 4.10016 15.3972H19.5865C19.6627 15.3933 19.7389 15.4049 19.8105 15.4314C19.8821 15.4578 19.9475 15.4985 20.0029 15.5511C20.0582 15.6037 20.1022 15.6669 20.1323 15.737C20.1625 15.8072 20.178 15.8827 20.178 15.959C20.178 16.0353 20.1625 16.1108 20.1323 16.181C20.1022 16.2511 20.0582 16.3143 20.0029 16.3669C19.9475 16.4194 19.8821 16.4602 19.8105 16.4866C19.7389 16.5131 19.6627 16.5247 19.5865 16.5208Z" fill="#FF3E4C"/>
<path d="M19.5865 19.6887H4.10016C3.95619 19.6813 3.82057 19.6188 3.7213 19.5143C3.62203 19.4098 3.56665 19.2711 3.56665 19.127C3.56665 18.9828 3.62203 18.8441 3.7213 18.7396C3.82057 18.6351 3.95619 18.5726 4.10016 18.5652H19.5865C19.6627 18.5613 19.7389 18.5729 19.8105 18.5993C19.8821 18.6258 19.9475 18.6665 20.0029 18.7191C20.0582 18.7716 20.1022 18.8349 20.1323 18.905C20.1625 18.9751 20.178 19.0506 20.178 19.127C20.178 19.2033 20.1625 19.2788 20.1323 19.3489C20.1022 19.419 20.0582 19.4823 20.0029 19.5349C19.9475 19.5874 19.8821 19.6281 19.8105 19.6546C19.7389 19.6811 19.6627 19.6927 19.5865 19.6887Z" fill="#FF3E4C"/>
<path d="M13.4783 13.352H4.10016C3.95619 13.3446 3.82057 13.2822 3.7213 13.1776C3.62203 13.0731 3.56665 12.9344 3.56665 12.7903C3.56665 12.6461 3.62203 12.5075 3.7213 12.4029C3.82057 12.2984 3.95619 12.236 4.10016 12.2285H13.4783C13.6223 12.236 13.7579 12.2984 13.8572 12.4029C13.9565 12.5075 14.0118 12.6461 14.0118 12.7903C14.0118 12.9344 13.9565 13.0731 13.8572 13.1776C13.7579 13.2822 13.6223 13.3446 13.4783 13.352Z" fill="#FF3E4C"/>
<path d="M13.4783 10.1841H4.10016C3.95619 10.1766 3.82057 10.1142 3.7213 10.0097C3.62203 9.90513 3.56665 9.76647 3.56665 9.62231C3.56665 9.47815 3.62203 9.33949 3.7213 9.23495C3.82057 9.13042 3.95619 9.06799 4.10016 9.06055H13.4783C13.6223 9.06799 13.7579 9.13042 13.8572 9.23495C13.9565 9.33949 14.0118 9.47815 14.0118 9.62231C14.0118 9.76647 13.9565 9.90513 13.8572 10.0097C13.7579 10.1142 13.6223 10.1766 13.4783 10.1841Z" fill="#FF3E4C"/>
<path d="M27.5907 25.8223H8.83435C7.50387 25.8223 6.42529 26.9008 6.42529 28.2313V33.8234C6.42529 35.1539 7.50387 36.2325 8.83435 36.2325H27.5907C28.9212 36.2325 29.9998 35.1539 29.9998 33.8234V28.2313C29.9998 26.9008 28.9212 25.8223 27.5907 25.8223Z" fill="#FF3E4C"/>
<path d="M14.2368 31.7445V33.327H13.1448V28.8164H14.9118C15.4488 28.8164 15.8574 28.9494 16.1374 29.2154C16.2795 29.3548 16.3905 29.5227 16.4632 29.7081C16.5358 29.8934 16.5684 30.0921 16.5588 30.2909C16.5638 30.5533 16.4985 30.8122 16.3698 31.041C16.2401 31.2656 16.0456 31.446 15.8118 31.5585C15.5311 31.6918 15.2225 31.7561 14.9118 31.746L14.2368 31.7445ZM15.4488 30.2909C15.4488 29.8909 15.2298 29.6909 14.7918 29.6909H14.2368V30.8654H14.7918C15.2298 30.8694 15.4488 30.6779 15.4488 30.2909Z" fill="white"/>
<path d="M20.8695 32.2403C20.6812 32.5814 20.397 32.8599 20.052 33.0413C19.6649 33.2397 19.2344 33.3382 18.7995 33.3278H17.0955V28.8172H18.7995C19.2351 28.8066 19.6667 28.9029 20.0565 29.0977C20.3996 29.2758 20.6825 29.5514 20.8695 29.8897C21.0559 30.2534 21.1531 30.6563 21.1531 31.065C21.1531 31.4737 21.0559 31.8765 20.8695 32.2403ZM19.695 32.0138C19.9234 31.7499 20.0492 31.4125 20.0492 31.0635C20.0492 30.7145 19.9234 30.3771 19.695 30.1132C19.4223 29.8737 19.0658 29.7518 18.7035 29.7742H18.186V32.3513H18.711C19.0705 32.3716 19.4237 32.2505 19.695 32.0138Z" fill="white"/>
<path d="M24.7094 28.8164V29.6849H22.8598V30.6734H24.2893V31.503H22.8598V33.327H21.7693V28.8164H24.7094Z" fill="white"/>
<path d="M19.3126 9.06055H16.6605C16.1982 9.06055 15.8235 9.43529 15.8235 9.89757V12.5496C15.8235 13.0119 16.1982 13.3866 16.6605 13.3866H19.3126C19.7748 13.3866 20.1495 13.0119 20.1495 12.5496V9.89757C20.1495 9.43529 19.7748 9.06055 19.3126 9.06055Z" fill="#FF3E4C"/>
</svg>
