<svg width="20" height="20" viewBox="0 0 20 20" fill="none" xmlns="http://www.w3.org/2000/svg">
<path d="M17.0759 2.92411C13.1771 -0.974704 6.82293 -0.974704 2.92411 2.92411C-0.974704 6.82293 -0.974704 13.1771 2.92411 17.0759C6.82293 20.9747 13.1771 20.9747 17.0759 17.0759C20.9747 13.1771 20.9747 6.82293 17.0759 2.92411ZM12.2997 13.361L10 11.0614L7.70034 13.361C7.41022 13.6512 6.92906 13.6512 6.63895 13.361C6.34884 13.0709 6.34884 12.5898 6.63895 12.2997L8.93862 10L6.63895 7.70034C6.34884 7.41022 6.34884 6.92906 6.63895 6.63895C6.92906 6.34884 7.41023 6.34884 7.70034 6.63895L10 8.93862L12.2997 6.63895C12.5898 6.34884 13.0709 6.34884 13.361 6.63895C13.6512 6.92906 13.6512 7.41023 13.361 7.70034L11.0614 10L13.361 12.2997C13.6512 12.5898 13.6512 13.0709 13.361 13.361C13.0709 13.6512 12.5898 13.6512 12.2997 13.361Z" fill="#BBBBBB"/>
</svg>
